<svg xmlns="http://www.w3.org/2000/svg" viewBox="0 0 283.46 148.45"><defs><style>.cls-1{fill:#e75400;}.cls-2{fill:#54585a;}</style></defs><g id="レイヤー_2" data-name="レイヤー 2"><g id="LIXIL_LOGO_ARTWORK" data-name="LIXIL LOGO ARTWORK"><path class="cls-1" d="M23.27,67.33a3.72,3.72,0,0,1-3.71-3.72V11.49H0v55.6a18.1,18.1,0,0,0,18.1,18.1H44.79V67.33Z"/><path class="cls-1" d="M262,67.33a3.72,3.72,0,0,1-3.71-3.72V11.49H238.68v55.6a18.1,18.1,0,0,0,18.1,18.1h26.68V67.33Z"/><rect class="cls-1" x="63.92" y="11.49" width="19.84" height="73.7"/><rect class="cls-1" x="196.04" y="11.49" width="19.84" height="73.7"/><path class="cls-1" d="M154,45.53l24.72-34L162.93,0l-23,31.7L116.87,0,101,11.5l24.73,34a5.12,5.12,0,0,1,0,5.62L101,85.18l15.83,11.5,23-31.7,23,31.7,15.82-11.5L154,51.15a5.08,5.08,0,0,1,0-5.62"/><path class="cls-2" d="M36.4,123.14a7.36,7.36,0,0,0-5.17,2.5v-2.15H28.32v18.34h2.91V128.3c1.21-1.26,3.25-2.6,4.92-2.6,1.88,0,2.72.91,2.72,3v13.17h2.91V128.59C41.78,125.18,39.76,123.14,36.4,123.14Z"/><polygon class="cls-2" points="60.22 123.49 56.68 123.49 49.69 132.25 49.69 116.52 46.78 116.52 46.78 141.83 49.69 141.83 49.69 136.32 52.74 132.83 57.41 141.83 60.82 141.83 54.76 130.34 60.22 123.49"/><path class="cls-2" d="M79.28,139.62c-1.6,0-1.82-.52-1.82-1V126.05H81.6v-2.56H77.46v-5.9H74.55v5.9H71.62v2.56h2.93v13c0,2.65,1.55,3.18,4,3.18a11.43,11.43,0,0,0,3-.29l.15,0v-2.44l-.25,0A14.22,14.22,0,0,1,79.28,139.62Z"/><path class="cls-2" d="M91.59,123.14c-4.59,0-7.55,3.74-7.55,9.52s3,9.52,7.55,9.52,7.55-3.74,7.55-9.52S96.18,123.14,91.59,123.14Zm0,16.48c-2.91,0-4.65-2.6-4.65-7s1.74-7,4.65-7,4.65,2.6,4.65,7S94.5,139.62,91.59,139.62Z"/><path class="cls-2" d="M120.77,118.94c3,0,4.84,1.65,6,5.34l.06.18,3-.6-.07-.22c-1.43-5-4.43-7.46-9.16-7.46-3,0-9.93,1.27-9.93,13s6.94,13,9.93,13c2.76,0,5.05-.84,6.37-2.32v2h2.7V129.45h-8.8v2.77h5.62v1.89c0,2.56-1.51,5.3-5.75,5.3-2.58,0-6.89-1.33-6.89-10.23S118.19,118.94,120.77,118.94Z"/><path class="cls-2" d="M141.14,123.14c-4.58,0-7.55,3.74-7.55,9.52s3,9.52,7.55,9.52,7.56-3.74,7.56-9.52S145.73,123.14,141.14,123.14Zm0,16.48c-2.91,0-4.64-2.6-4.64-7s1.73-7,4.64-7,4.65,2.6,4.65,7S144.05,139.62,141.14,139.62Z"/><path class="cls-2" d="M159,123.14c-4.59,0-7.56,3.74-7.56,9.52s3,9.52,7.56,9.52,7.55-3.74,7.55-9.52S163.56,123.14,159,123.14Zm0,16.48c-2.91,0-4.65-2.6-4.65-7s1.74-7,4.65-7,4.65,2.6,4.65,7S161.88,139.62,159,139.62Z"/><path class="cls-2" d="M184.52,138.48v-22h-2.91V125a7.84,7.84,0,0,0-4.64-1.88c-2.76,0-7.42,2-7.42,9.52,0,7,4.07,9.52,7.55,9.52a6.37,6.37,0,0,0,4.61-1.84l.29,1.49h2.69l0-.24A18,18,0,0,1,184.52,138.48Zm-2.91-10.43v9.28c-1.75,1.71-2.85,2.29-4.3,2.29-3.08,0-4.85-2.49-4.85-6.82,0-4.71,1.63-7.1,4.85-7.1A6.4,6.4,0,0,1,181.61,128.05Z"/><polygon class="cls-2" points="201.85 116.52 198.67 116.52 198.67 141.83 213.26 141.83 213.26 139.07 201.85 139.07 201.85 116.52"/><rect class="cls-2" x="216.82" y="116.18" width="2.91" height="3.39"/><rect class="cls-2" x="216.82" y="123.49" width="2.91" height="18.35"/><polygon class="cls-2" points="230.87 137.91 226.44 123.49 223.48 123.49 229.13 141.83 232.75 141.83 238.26 123.49 235.3 123.49 230.87 137.91"/><rect class="cls-2" x="242.02" y="116.18" width="2.9" height="3.39"/><rect class="cls-2" x="242.02" y="123.49" width="2.9" height="18.35"/><path class="cls-2" d="M258.28,123.14a7.33,7.33,0,0,0-5.17,2.51v-2.16h-2.9v18.34h2.9V128.3c1.21-1.26,3.25-2.6,4.93-2.6,1.88,0,2.71.91,2.71,3v13.17h2.91V128.59C263.66,125.18,261.65,123.14,258.28,123.14Z"/><path class="cls-2" d="M272.05,138.17c-.79,0-1.27-.41-1.27-1.1a1.44,1.44,0,0,1,1.2-1.43,10.2,10.2,0,0,0,3.17.47,6.56,6.56,0,0,0,6.76-6.48,6.32,6.32,0,0,0-1.12-3.57,7.51,7.51,0,0,1,2.43-.36h.21v-2.93l-.23,0a8.66,8.66,0,0,0-3.84,1.54,7.53,7.53,0,0,0-4.45-1.2c-4.06,0-7,2.73-7,6.49a6.21,6.21,0,0,0,2.29,5c-1.28.81-2.26,1.52-2.26,3.09a3,3,0,0,0,1.94,2.59c-1.77,1-2.73,1.89-2.73,3.62,0,3,2.67,4.55,7.93,4.55,6.18,0,8.38-2.6,8.38-5C283.46,139.59,280.37,138.17,272.05,138.17Zm2.76-12.47c2.79,0,4.34,1.44,4.34,4.06a3.72,3.72,0,0,1-4.07,3.79c-2.59,0-4.4-1.61-4.4-3.92S272.26,125.7,274.81,125.7Zm.69,20.19c-5.15,0-5.58-1-5.58-2,0-1.34,1.26-2.78,4.78-2.78,5.33,0,6,1.39,6,2.44C280.66,145.27,278,145.89,275.5,145.89Z"/><polygon class="cls-2" points="5.17 116.52 1.98 116.52 1.98 141.83 16.57 141.83 16.57 139.07 5.17 139.07 5.17 116.52"/><rect class="cls-2" x="20.13" y="116.18" width="2.9" height="3.39"/><rect class="cls-2" x="20.13" y="123.49" width="2.9" height="18.35"/></g></g></svg>