<svg xmlns="http://www.w3.org/2000/svg" viewBox="0 0 406.2 22.63"><g id="レイヤー_2" data-name="レイヤー 2"><g id="レイヤー_1-2" data-name="レイヤー 1"><path d="M.46,5.5H9v3c-.52,3.34-2.08,8.72-7.32,12L0,17.64A12.58,12.58,0,0,0,6.12,8.47H.46ZM13.15,2.78a2.32,2.32,0,0,0,0,.46c.05.31,1.51,5,1.53,5.09a31.53,31.53,0,0,0,5.55-5.45L23,4.9a38.68,38.68,0,0,1-6.84,6,20.82,20.82,0,0,0,7.15,6.91l-1.83,2.93c-3.69-2.5-6.93-6.07-8.28-9.92V20c0,2.26-1.2,2.62-2.37,2.62H6.43l-.62-3.05H9.43c.46,0,.7-.22.7-.65V0h3Z"/><path d="M45.1,3.31V6H37.83V8.18h6.74v2.69H37.83v2.71a23.11,23.11,0,0,1,6.81,4.18l-2,2.95a17.8,17.8,0,0,0-4.77-3.79l0,.84c-.07,2.88-2.74,3.75-5.06,3.75-5,0-6.12-2.72-6.12-4.32,0-2.57,2.52-4.52,6.19-4.52a11,11,0,0,1,1.85.17v-2H26.47V8.18h8.19V6H26V3.31h8.62V1.13h3.17V3.31ZM34.66,15.53a6.76,6.76,0,0,0-2-.31c-1.68,0-3,.72-3,1.85,0,.31.17,1.72,2.74,1.72,1.17,0,2.33-.31,2.33-1.94Z"/><path d="M49.66,7.51v-3h3.55l0-3.36h3.19c-.07,3.05-.07,3.39-.12,6.24C57.94,6.12,59.81,4.7,63,4.7c4.08,0,6.94,3,6.94,7.37,0,7-5.26,8.69-10.11,9l-.91-3c2.79-.1,7.8-.41,7.8-5.84,0-2.71-1.39-4.53-4.29-4.53s-5.31,2.16-6.17,2.95c0,4.73,0,5.35,0,10.85H53l.07-7a16.48,16.48,0,0,1-2.66,3.65l-1.54-3.24a22.21,22.21,0,0,0,4.25-5.57l0-1.83Z"/><path d="M80,1.61a33.74,33.74,0,0,0-1,7.77c.93-1.53,1-1.7,1.51-2.42L82.39,8.4a22.73,22.73,0,0,0-2.25,3.48,6.29,6.29,0,0,0-.94,3l-3,.17a42.49,42.49,0,0,1-.36-5.67,38.94,38.94,0,0,1,.8-8.09Zm10.9-.19c.21,2.73.36,5.47.36,8.23,0,5.47-.63,10.1-9.29,12.24l-2.4-2.45c8-2,8.28-5.18,8.28-10.08,0-2.78-.12-4.42-.39-7.94Z"/><path d="M102.22,20.71V13.8H112.9v5.86h1.27c.53,0,.67-.29.67-.7V12.1c-.45.84-.93.88-1.8.88H109.8c-.62,0-2,0-2-1.58V8.76h-1.37c-.62,2.71-2.33,3.89-5.06,5l-1.06-1.87V22.63H97.39V6.36H102a9.44,9.44,0,0,0-.53-2.3H96.34V1.46h9.76V.07h3.1V1.46H119v2.6h-5a22.8,22.8,0,0,1-.79,2.3h4.61V20.71a1.69,1.69,0,0,1-1.85,1.92h-3.55L112,20.71Zm-1.9-9.41c2.23-.55,3-1.44,3.41-2.54h-3.41Zm9.77-4.94a15.86,15.86,0,0,0,.67-2.3h-6.29a13.13,13.13,0,0,1,.6,2.3Zm.1,9.7H104.9v2.3h5.29ZM114.84,10V8.76H110.5v1.63a.47.47,0,0,0,.52.51h.89c.72,0,1-.12,1.08-1.4Z"/><path d="M130.59,11.19v11h-9.53v-11ZM140,.74V9.48H123.34V.74ZM123.84,13.85v5.62h3.94V13.85Zm2.38-10.47V6.89h10.87V3.38Zm15.93,7.81v11h-9.91v-11Zm-7.1,2.66v5.62h4.32V13.85Z"/><path d="M145.18,19.08A13.89,13.89,0,0,0,152.4,8.26h-6.24v-3h6.6c.1-1.49.14-2.4.12-4.15l3.34,0c-.07,1.68-.12,2.47-.27,4.1h8.67V9.12c0,2.57-.15,7.85-1,9.94-.93,2.33-3.31,2.33-4.39,2.33a23.3,23.3,0,0,1-3.62-.29l-.17-3.22a21,21,0,0,0,3.36.34c1.58,0,1.87-.48,2.09-1.37a45.48,45.48,0,0,0,.53-7V8.26h-5.79c-1.22,8-5.47,11.49-8.28,13.27Z"/><path d="M189.07,7.54c-.36,3.84-1.7,8.37-5.08,10.77-1.44,1-4.35,2.6-10.49,3.17l-1-3c6.26-.36,11.42-1.87,12.77-8H169.92V7.54Zm-1.48-5.69V4.78H171.65V1.85Z"/><path d="M213.94,9.67V13h-20.6V9.67Z"/><path d="M224.76,12.7a27,27,0,0,0-6.91-2.93L219,7.1a24.64,24.64,0,0,1,7,2.74Zm-5.54,5.09c8.85-.84,13-3.65,15.93-13.25l2.74,2c-3.29,9.7-8,13.4-18,14.69ZM226.85,7a32.07,32.07,0,0,0-7.13-2.8l1.2-2.6a28.36,28.36,0,0,1,7.23,2.55Z"/><path d="M259.8,21.65a74.78,74.78,0,0,0-17.74-3l.6-3.05a80.36,80.36,0,0,1,18.17,2.79Zm-1.82-8a62.49,62.49,0,0,0-14.57-2.54L244,8.18a65.11,65.11,0,0,1,14.62,2.4Zm1.27-6.91a68.89,68.89,0,0,0-15.7-2.47l.55-2.93a78,78,0,0,1,15.75,2.16Z"/><path d="M284.16,17.64v2.83H267.05V17.64h9.74a57,57,0,0,0,1-8.16h-8.54V6.65H281a93.39,93.39,0,0,1-1.13,11Z"/><path d="M295.08,17.74c5.64-.65,9.72-3.15,12.15-10.76l2.88,1.71c-3.05,8.18-7.59,12.22-18.41,12.58V1.49h3.38Z"/><path d="M333.94,9.67V13h-20.6V9.67Z"/><path d="M344.76,12.7a27,27,0,0,0-6.91-2.93L339,7.1a24.64,24.64,0,0,1,7,2.74Zm-5.54,5.09c8.85-.84,13-3.65,15.93-13.25l2.74,2c-3.29,9.7-8,13.4-18,14.69ZM346.85,7a32.07,32.07,0,0,0-7.13-2.8l1.2-2.6a28.36,28.36,0,0,1,7.23,2.55Z"/><path d="M364.92,14.57V11.93h10.42V8.71H364.61V6h13.75V20.83h-14V18.05h10.95V14.57Z"/><path d="M393.51,8.69a28.81,28.81,0,0,0-7.45-3.58l1.47-2.76a32.38,32.38,0,0,1,7.7,3.39Zm-7,9c7.13-.58,13.8-3,16.87-14.21l2.81,2c-2.85,8.86-7.8,14.5-19,15.72Z"/></g></g></svg>